 
<svg version="1.1" viewBox="100 160 280 206" 
  style="width: 500px; height: auto;"  xml:space="preserve" xmlns="http://www.w3.org/2000/svg">
 
<path d="m267.86 128.99c9.8217 1.9981 19.671 3.8715 29.454 6.0437 5.4167 1.2027 10.701 2.9902 16.083 4.3647 10.016 2.5579 18.02-0.68343 24.666-8.3915 1.1349-1.3163 4.0722-2.5619 5.2709-1.9786 1.636 0.79608 3.2679 3.3191 3.3962 5.2043 0.63245 9.2896 0.62506 18.621 1.116 27.923 0.5517 10.452 1.5826 20.881 1.9883 31.336 0.11096 2.8591 2.0385 7.1375-2.9674 8.2586-4.6039 1.0311-7.2973-1.055-9.2043-5.4213-5.6537-12.945-13.4-24.424-23.871-34.149-12.567-11.671-27.175-18.187-43.956-21.575-14.546-2.9374-27.171 0.44666-39.316 7.5045-7.0694 4.1083-13.941 8.7111-18.417 15.908-5.3233 8.5597-10.695 17.094-15.782 25.794-3.0201 5.165-2.3389 5.9294 3.7325 7.4366 15.074 3.7421 28.182 11.12 39.504 21.748 2.8774 2.701 6.1537 4.9875 8.9442 7.768 3.0166 3.0059 5.6789 6.3672 8.7612 9.8757-3.7249 3.918-6.7618 7.6926-10.466 10.625-1.003 0.7941-4.7731-0.28348-6.0012-1.6474-12.631-14.027-26.469-26.16-45.231-31.3-12.564-3.4425-24.027-0.08139-34.877 5.9149-13.326 7.3641-20.3 19.54-21.258 34.138-0.61 9.2982 2.5423 18.82 9.6514 25.73 4.4378 4.3138 9.4301 8.6822 15.013 11.027 6.2917 2.6422 13.15 5.4637 20.546 3.0619 6.7107-2.1794 13.913-3.2463 20.179-6.2858 6.8218-3.3088 13.39-7.6793 19.06-12.721 15.682-13.942 30.712-28.614 46.245-42.727 11.086-10.073 22.817-19.347 37.946-22.704 16.838-3.7358 33.693-3.6309 48.279 6.3203 20.641 14.082 29.436 38.693 20.233 64.481-4.2458 11.896-12.175 19.763-22.564 25.872-0.66943 0.39365-1.5648 0.40302-2.9521 0.70905-0.83758 0.34796-1.0273 0.61429-1.3245 1.2857-0.062774 4.4209 0.032807 8.4728 0.18726 12.978 0.020447 3.1922-0.018005 5.9311-0.19821 8.9973-0.043793 2.4029 0.054199 4.4786 0.21478 6.9879 0.022034 2.1822-0.018493 3.9308-0.21329 6.0561-0.34992 2.8158-0.57883 5.2527-0.73468 7.6944-0.37436 5.8648-0.71442 11.732-1.0683 17.598-0.27792-0.071503-0.50699-0.2189-1.1105-0.78891-2.679-1.0752-4.9346-1.8037-7.1902-2.5322-5.9746-9.9207-11.396-10.806-21.078-6.8874-15.367 6.2191-31.05 11.298-47.478 13.816-2.7602 0.42304-5.5847 0.42593-9.2366 0.65524-8.5294-0.026367-16.202-0.084991-24.112-0.24979-1.057-0.017181-1.8761 0.071808-2.9304 0.22552-0.23517 0.064697-0.7202 0.11682-0.7202 0.11682-5.8701-0.97284-11.857-1.5031-17.585-3.0124-11.257-2.9658-21.709-7.9503-31.436-14.344-14.181-9.3212-25.735-21.303-34.567-35.743-3.2893-5.3779-5.1703-11.604-8.3159-17.087-2.8418-4.9529-6.8149-9.2485-9.7694-14.147-2.9279-4.8549-5.8437-9.8862-7.6446-15.219-4.5153-13.37-3.7877-26.921 1.5102-39.874 2.3665-5.7862 6.7632-10.71 9.826-16.253 2.8405-5.1408 5.1413-10.581 7.6626-15.897 5.3006-11.177 11.137-22.089 19.575-31.217 6.9906-7.5616 14.093-15.2 22.137-21.548 5.9368-4.6846 13.376-7.5426 20.316-10.861 10.518-5.0296 21.49-8.4426 34.12-7.8835 1.8616-0.29846 2.9676-0.57753 4.5396-0.92162 7.1702-0.021133 13.874 0.022797 20.771 0.14459 0.71948 0.013229 1.2462-0.051407 1.9872-0.17882 0.21417-0.062775 0.66049-0.053268 0.66049-0.053268m34.465 205.27c-0.093872-8.0555-0.18774-16.111-0.66263-24.544-0.26456-0.24136-0.52908-0.48273-1.5315-0.77057-13.554-6.269-25.587-14.557-34.907-26.411-6.1286-7.7957-6.0404-8.3829 1.6565-15.347 0.4939-0.44681 1.0193-0.87772 1.4279-1.3965 1.8229-2.3148 3.7853-1.7599 5.545-0.097443 4.3456 4.1055 8.4179 8.5146 12.914 12.443 4.0031 3.4977 8.4271 6.5137 12.665 9.7423 0.5445-0.33368 1.089-0.66736 1.6335-1.0011-0.2995-3.6701 0.5061-7.9685-1.1439-10.871-2.8475-5.0086-7.3471-8.691-13.855-9.1882-2.3888-0.1825-4.7887-1.9125-6.8929-3.3593-0.94232-0.64795-1.8777-2.6274-1.5301-3.4748 0.38153-0.93005 2.2451-1.2521 4.2089-1.5441 1.1421 0.18012 2.284 0.51547 3.4264 0.51727 19.419 0.030701 38.838 0.037995 58.257-0.017761 1.4559-0.004181 2.9103-0.52408 5.3028-0.84674h13.491c-1.7859-5.1515-3.0175-9.0162-4.4588-12.801-3.7542-9.8585-11.921-14.978-21.119-18.358-12.686-4.6621-24.15-0.4621-35.561 5.4695-13.328 6.9285-22.729 18.389-33.899 27.781-9.335 7.8493-17.909 16.598-26.924 24.834-12.574 11.486-26.229 21.302-43.207 25.079-8.8505 1.9694-17.777 4.4087-27.027 1.4674-3.4273-1.0898-7.1199-1.3455-10.691-1.9815-0.077148 0.41708-0.1543 0.83417-0.23146 1.2513 9.7105 4.6354 19.493 8.722 30.897 5.899 9.7528-2.4143 7.1075-3.6524 11.75 5.1295 6.1761 11.684 13.699 22.31 24.669 29.869 7.1469 4.9243 14.637 9.3225 23.967 9.4175 8.8103 0.089752 17.598 0.49878 25.641-3.7495 6.3777-3.369 12.995-6.6084 18.545-11.094 3.16-2.5542 4.3913-7.4944 6.8965-11.332 0 0 0.40466 0.036773 0.75046-0.71497m58.343-63.417c-0.87741-0.27374-2.1372-1.0648-2.5737-0.74206-4.9862 3.6859-8.8105 6.4821-5.9373 15.891 3.1428-5.4069 5.781-9.9456 8.511-15.149m-60.166 36.683s-0.0159-0.040497 0 0z" fill="#000"/>
 
</svg>
